
<svg version="1.1" id="layer" xmlns="http://www.w3.org/2000/svg" xmlns:xlink="http://www.w3.org/1999/xlink" x="0px" y="0px"
	 viewBox="0 0 652 652" style="enable-background:new 0 0 652 652;" xml:space="preserve">
<style type="text/css">
	.st0{fill:#019CDB;}
</style>
<g>
	<path d="M81.4,384.3H66.9v-14.8H35v58.7H20.5v-73.3h46.4c9.7,0,14.5,4.9,14.5,14.6V384.3z"/>
	<rect x="519.2" y="368.1" class="st0" width="44.6" height="45.2"/>
	<path class="st0" d="M342.4,254.7v201.6H354V354.2h58.8c0,0,13.7,0.1,13.7,14.3c0,14.2,0.1,44.3,0.1,44.3s-0.1,14.7-14.5,14.7
		c-11.7,0-43.6,0-43.6,0v28.8h220.7V254.7H342.4z M496.8,383.6h-14.5v-14.8h-31.9v58.7h-14.5v-73.3h46.4c9.7,0,14.5,4.9,14.5,14.6
		V383.6z M578.7,413.2c0,10-5,15-14.8,15h-44.6c-7.9,0-12.8-3.3-14.3-10c-0.4-1.5-0.5-3.2-0.5-5v-45.2c0-4,1.4-7.4,4.2-10.4
		c2.8-3.1,6.4-4.6,10.6-4.6h44.6c4.2,0,7.7,1.4,10.5,4.4c2.9,2.9,4.3,6.5,4.3,10.6V413.2z"/>
	<path class="st0" d="M463.9,191.4c30,0,34.5,27.6,35.3,33.7c0.8,6.1,0.7,19.9,0.7,19.9h6.5c0,0,0.4-8.5-0.2-16.5
		c-0.6-8-5.4-43.7-42.3-43.7h0c-36.8,0-41.7,35.6-42.3,43.7c-0.6,8-0.2,16.5-0.2,16.5h6.5c0,0-0.1-13.9,0.7-19.9
		C429.4,219,434,191.4,463.9,191.4L463.9,191.4z"/>
	<polyline class="st0" points="349.1,252.5 349.1,237.4 379.1,244.3 	"/>
	<polyline class="st0" points="582.8,252.5 582.8,237.4 553,244.3 	"/>
	<path d="M162.1,384.1c0,4.3-1.3,7.9-4,10.6c-2.7,2.7-6.2,4.1-10.5,4.1H104v14.8h54.3v14.6H104c-4.2,0-7.7-1.4-10.4-4.1
		c-2.7-2.8-4.1-6.3-4.1-10.5v-44c0-4.5,1.3-8.1,3.9-10.7c2.6-2.6,6.1-3.9,10.6-3.9h43.6c4.2,0,7.7,1.4,10.4,4.1
		c2.7,2.7,4,6.2,4,10.5V384.1z M149.2,369.5h-43.6v14.6h43.6V369.5z"/>
	<path d="M200.2,428.2h-14.6c-4.2,0-7.7-1.4-10.4-4.1c-2.7-2.8-4.1-6.3-4.1-10.5V334h14.5v20.9h14.6v14.6h-14.6v44h14.6V428.2z"/>
	<path d="M278.8,428.2h-58.1c-4.2,0-7.6-1.4-10.4-4.2c-2.7-2.8-4.1-6.3-4.1-10.4v-14.8c0-4.2,1.4-7.8,4.1-10.5
		c2.7-2.8,6.2-4.1,10.4-4.1h43.6v-14.6h-52.5v-14.6h52.5c4.2,0,7.7,1.4,10.4,4.1c2.7,2.7,4.1,6.2,4.1,10.5V428.2z M264.3,398.7
		h-43.6v14.8h43.6V398.7z"/>
	<rect x="291.1" y="354.9" width="14.5" height="73.3"/>
	<rect x="317.4" y="333.7" width="14.5" height="94.5"/>
	<rect x="291" y="333.8" width="14.5" height="14.5"/>
	<rect x="368.5" y="368.8" class="st0" width="43.6" height="44"/>
	<path d="M609.4,452.4c-6.5,0-11.1-4.9-11.1-11.3c0-6.8,5.2-11.3,11.1-11.3c5.9,0,11.1,4.5,11.1,11.3
		C620.5,447.9,615.4,452.4,609.4,452.4 M609.4,431.7c-4.9,0-8.7,3.9-8.7,9.4c0,5.1,3.3,9.4,8.7,9.4c4.8,0,8.7-3.8,8.7-9.4
		C618.1,435.6,614.3,431.7,609.4,431.7 M607.2,447.6h-2.1V435h4.8c3,0,4.6,1.1,4.6,3.6c0,2.3-1.4,3.2-3.3,3.4l3.5,5.5h-2.3l-3.2-5.4
		h-1.9V447.6z M609.5,440.5c1.5,0,2.9-0.1,2.9-2c0-1.5-1.5-1.7-2.7-1.7h-2.5v3.7H609.5z"/>
</g>
</svg>
